# Blender 3.6.1
# www.blender.org
mtllib single_holder_vhacd.mtl
o convex_0
v -0.902461 0.002706 -0.902553
v 0.905007 0.038445 0.905007
v 0.905007 0.002706 0.905007
v 0.905007 0.038445 -0.902553
v -0.902461 0.038445 0.905007
v -0.902461 0.002706 0.905007
v 0.905007 0.002706 -0.902553
v -0.902461 0.038445 -0.902553
vn -0.0000 1.0000 -0.0000
vn 1.0000 -0.0000 -0.0000
vn -0.0000 -0.0000 1.0000
vn -0.0000 -1.0000 -0.0000
vn -1.0000 -0.0000 -0.0000
vn -0.0000 -0.0000 -1.0000
s 0
f 5//1 4//1 8//1
f 2//2 3//2 4//2
f 3//3 2//3 5//3
f 2//1 4//1 5//1
f 1//4 3//4 6//4
f 5//5 1//5 6//5
f 3//3 5//3 6//3
f 3//4 1//4 7//4
f 4//2 3//2 7//2
f 1//6 4//6 7//6
f 4//6 1//6 8//6
f 1//5 5//5 8//5
o convex_1
v 0.843733 0.034604 -0.070259
v 0.905007 1.739530 0.108455
v 0.905007 1.739530 -0.070259
v 0.843733 1.739530 0.108455
v 0.905007 0.034604 0.108455
v 0.843733 1.739530 -0.070259
v 0.905007 0.034604 -0.070259
v 0.843733 0.034604 0.108455
vn -0.0000 -0.0000 1.0000
vn -0.0000 1.0000 -0.0000
vn 1.0000 -0.0000 -0.0000
vn -0.0000 -0.0000 -1.0000
vn -1.0000 -0.0000 -0.0000
vn -0.0000 -1.0000 -0.0000
s 0
f 13//7 12//7 16//7
f 10//8 11//8 12//8
f 11//9 10//9 13//9
f 10//7 12//7 13//7
f 11//10 9//10 14//10
f 12//8 11//8 14//8
f 9//11 12//11 14//11
f 9//10 11//10 15//10
f 13//12 9//12 15//12
f 11//9 13//9 15//9
f 12//11 9//11 16//11
f 9//12 13//12 16//12
o convex_10
v 0.031805 1.739530 0.905007
v -0.591081 0.034604 0.792672
v -0.294884 0.034604 0.792672
v -0.591081 1.739530 0.792672
v -0.591081 0.034604 0.905007
v 0.036969 0.034604 0.905007
v -0.591081 1.739530 0.905007
v 0.036969 1.739363 0.848840
v 0.036969 0.034604 0.848840
v -0.294884 1.739530 0.792672
vn 0.0010 1.0000 -0.0029
vn -0.0000 -0.0000 -1.0000
vn -0.0000 -1.0000 -0.0000
vn -1.0000 -0.0000 -0.0000
vn -0.0000 -0.0000 1.0000
vn -0.0000 1.0000 -0.0000
vn 0.9958 0.0030 0.0915
vn 1.0000 -0.0000 -0.0000
vn 0.1669 -0.0000 -0.9860
s 0
f 17//13 24//13 26//13
f 19//14 18//14 20//14
f 18//15 19//15 21//15
f 20//16 18//16 21//16
f 17//17 21//17 22//17
f 21//15 19//15 22//15
f 17//18 20//18 23//18
f 21//17 17//17 23//17
f 20//16 21//16 23//16
f 17//19 22//19 24//19
f 24//20 22//20 25//20
f 22//15 19//15 25//15
f 19//21 24//21 25//21
f 19//14 20//14 26//14
f 20//18 17//18 26//18
f 24//21 19//21 26//21
o convex_11
v 0.547537 1.739530 -0.805537
v 0.036969 0.034604 -0.902553
v 0.225921 0.034604 -0.902553
v 0.256563 0.034604 -0.805537
v 0.036969 1.739530 -0.846391
v 0.552635 1.739363 -0.902544
v 0.552686 0.034604 -0.902544
v 0.552686 0.034604 -0.805537
v 0.036969 1.739530 -0.902553
v 0.036969 0.034604 -0.846391
v 0.256563 1.739530 -0.805537
v 0.552635 1.739363 -0.805537
vn 1.0000 -0.0000 -0.0000
vn -0.0000 -1.0000 -0.0000
vn -0.0000 -0.0000 -1.0000
vn -0.0000 -0.0000 1.0000
vn -0.0000 1.0000 -0.0000
vn -1.0000 -0.0000 -0.0000
vn 0.0003 1.0000 -0.0017
vn -0.1829 -0.0000 0.9831
vn 0.0326 0.9995 -0.0000
s 0
f 34//22 32//22 38//22
f 28//23 29//23 30//23
f 30//23 29//23 33//23
f 29//24 32//24 33//24
f 30//23 33//23 34//23
f 27//25 30//25 34//25
f 33//22 32//22 34//22
f 29//24 28//24 35//24
f 31//26 27//26 35//26
f 28//27 31//27 35//27
f 32//24 29//24 35//24
f 27//28 32//28 35//28
f 28//23 30//23 36//23
f 30//29 31//29 36//29
f 31//27 28//27 36//27
f 30//25 27//25 37//25
f 27//26 31//26 37//26
f 31//29 30//29 37//29
f 32//30 27//30 38//30
f 27//25 34//25 38//25
o convex_12
v 0.552686 1.100517 -0.688118
v 0.276956 0.034604 -0.805522
v 0.460758 0.641240 -0.805537
v 0.276956 1.739530 -0.805522
v 0.547558 0.034604 -0.647279
v 0.552659 1.739530 -0.805522
v 0.552686 0.034604 -0.805522
v 0.547558 1.739530 -0.647279
v 0.276956 1.739530 -0.800425
v 0.276956 0.034604 -0.800425
v 0.552686 0.034604 -0.647279
v 0.552659 1.739530 -0.647279
v 0.537355 0.034604 -0.652361
vn -0.4943 -0.0000 0.8693
vn -0.0001 -0.0000 -1.0000
vn -0.0000 -0.0000 -1.0000
vn -0.0000 -1.0000 -0.0000
vn 0.0002 -0.0000 -1.0000
vn 1.0000 -0.0000 -0.0001
vn -0.0000 1.0000 -0.0000
vn -1.0000 -0.0000 -0.0000
vn 1.0000 -0.0000 -0.0000
vn -0.0000 -0.0000 1.0000
vn 1.0000 -0.0000 0.0004
vn -0.4458 -0.0000 0.8951
vn -0.4925 0.0004 0.8703
s 0
f 47//31 48//31 51//31
f 41//32 40//32 42//32
f 41//33 42//33 44//33
f 40//33 41//33 45//33
f 43//34 40//34 45//34
f 41//35 44//35 45//35
f 44//36 39//36 45//36
f 44//37 42//37 46//37
f 42//38 40//38 47//38
f 46//37 42//37 47//37
f 40//34 43//34 48//34
f 47//38 40//38 48//38
f 45//39 39//39 49//39
f 43//34 45//34 49//34
f 46//40 43//40 49//40
f 46//40 49//40 50//40
f 39//39 44//39 50//39
f 44//37 46//37 50//37
f 49//41 39//41 50//41
f 43//42 46//42 51//42
f 46//43 47//43 51//43
f 48//34 43//34 51//34
o convex_13
v 0.557824 0.034604 -0.902505
v 0.899868 1.739530 -0.407261
v 0.741606 1.739530 -0.407261
v 0.899868 1.739530 -0.902505
v 0.905007 0.034604 -0.407261
v 0.552686 1.739530 -0.902505
v 0.905007 0.034604 -0.902505
v 0.552686 0.034771 -0.642156
v 0.552686 1.739530 -0.642205
v 0.741606 0.034604 -0.407261
v 0.905007 1.739363 -0.407261
v 0.905007 1.739363 -0.902505
v 0.552686 0.034771 -0.902505
vn -1.0000 -0.0000 -0.0000
vn -0.0000 1.0000 -0.0000
vn -0.0000 -0.0000 1.0000
vn -0.0000 -0.0000 -1.0000
vn -0.0000 -1.0000 -0.0000
vn -0.7793 -0.0000 0.6266
vn -0.0016 -1.0000 0.0006
vn -0.7792 -0.0000 0.6267
vn 0.0324 0.9995 -0.0000
vn 1.0000 -0.0000 -0.0000
vn -0.0324 -0.9995 -0.0000
s 0
f 59//44 57//44 64//44
f 54//45 53//45 55//45
f 53//46 54//46 56//46
f 54//45 55//45 57//45
f 55//47 52//47 57//47
f 52//47 55//47 58//47
f 56//48 52//48 58//48
f 57//44 59//44 60//44
f 54//45 57//45 60//45
f 59//49 54//49 60//49
f 52//48 56//48 61//48
f 56//46 54//46 61//46
f 59//50 52//50 61//50
f 54//51 59//51 61//51
f 55//52 53//52 62//52
f 53//46 56//46 62//46
f 56//53 58//53 62//53
f 62//53 58//53 63//53
f 58//47 55//47 63//47
f 55//52 62//52 63//52
f 57//47 52//47 64//47
f 52//54 59//54 64//54
o convex_14
v 0.746717 0.034604 -0.397035
v 0.905007 1.739530 -0.070259
v 0.905007 1.739530 -0.407261
v 0.746717 1.739530 -0.397035
v 0.905007 0.034604 -0.070259
v 0.905007 0.034604 -0.407261
v 0.843727 0.034604 -0.070259
v 0.843727 1.739530 -0.070259
v 0.746717 1.739530 -0.407261
v 0.746717 0.034604 -0.407261
vn -1.0000 -0.0000 -0.0000
vn -0.0000 1.0000 -0.0000
vn 1.0000 -0.0000 -0.0000
vn -0.0000 -1.0000 -0.0000
vn -0.9586 -0.0000 0.2846
vn -0.0000 -0.0000 1.0000
vn -0.0000 -0.0000 -1.0000
s 0
f 65//55 73//55 74//55
f 66//56 67//56 68//56
f 67//57 66//57 69//57
f 69//58 65//58 70//58
f 67//57 69//57 70//57
f 68//59 65//59 71//59
f 65//58 69//58 71//58
f 69//60 66//60 71//60
f 66//56 68//56 72//56
f 71//60 66//60 72//60
f 68//59 71//59 72//59
f 68//56 67//56 73//56
f 65//55 68//55 73//55
f 67//61 70//61 73//61
f 73//61 70//61 74//61
f 70//58 65//58 74//58
o convex_15
v 0.905007 1.739530 0.297381
v 0.629277 0.034604 0.567982
v 0.634405 0.034604 0.557780
v 0.905007 0.034604 0.573110
v 0.629277 1.739530 0.573110
v 0.792674 0.034604 0.297381
v 0.905007 1.739530 0.573110
v 0.792674 1.739530 0.297381
v 0.905007 0.034604 0.297381
v 0.629277 0.034604 0.573110
v 0.634405 1.739530 0.557780
vn -0.8545 -0.0000 -0.5194
vn -0.0000 -1.0000 -0.0000
vn 1.0000 -0.0000 -0.0000
vn -0.0000 1.0000 -0.0000
vn -0.0000 -0.0000 1.0000
vn -0.0000 -0.0000 -1.0000
vn -1.0000 -0.0000 -0.0000
vn -0.8935 -0.0000 -0.4491
vn -0.9483 0.0010 -0.3172
s 0
f 82//62 77//62 85//62
f 76//63 77//63 78//63
f 78//63 77//63 80//63
f 78//64 75//64 81//64
f 75//65 79//65 81//65
f 79//66 78//66 81//66
f 79//65 75//65 82//65
f 80//62 77//62 82//62
f 75//67 80//67 82//67
f 75//64 78//64 83//64
f 78//63 80//63 83//63
f 80//67 75//67 83//67
f 76//63 78//63 84//63
f 78//66 79//66 84//66
f 79//68 76//68 84//68
f 77//69 76//69 85//69
f 76//70 79//70 85//70
f 79//65 82//65 85//65
o convex_16
v 0.905007 1.739530 0.762036
v 0.379078 0.034604 0.756913
v 0.624179 0.034604 0.573110
v 0.379078 1.739530 0.756913
v 0.905007 1.739530 0.573110
v 0.905007 0.034604 0.762036
v 0.905007 0.034604 0.573110
v 0.624179 1.739530 0.573110
v 0.379078 1.739530 0.762036
v 0.379078 0.034604 0.762036
vn -1.0000 -0.0000 -0.0000
vn -0.6000 -0.0000 -0.8000
vn -0.0000 1.0000 -0.0000
vn -0.0000 -1.0000 -0.0000
vn 1.0000 -0.0000 -0.0000
vn -0.0000 -0.0000 -1.0000
vn -0.0000 -0.0000 1.0000
s 0
f 94//71 87//71 95//71
f 88//72 87//72 89//72
f 89//73 86//73 90//73
f 87//74 88//74 91//74
f 90//75 86//75 91//75
f 88//76 90//76 92//76
f 91//74 88//74 92//74
f 90//75 91//75 92//75
f 88//72 89//72 93//72
f 89//73 90//73 93//73
f 90//76 88//76 93//76
f 89//71 87//71 94//71
f 86//73 89//73 94//73
f 91//77 86//77 94//77
f 91//77 94//77 95//77
f 87//74 91//74 95//74
o convex_17
v 0.905007 1.739530 0.905007
v 0.036969 0.034604 0.848832
v 0.368941 0.034604 0.762036
v 0.036969 1.739530 0.848832
v 0.905007 1.739530 0.762036
v 0.905007 0.034604 0.905007
v 0.036969 0.034604 0.905007
v 0.905007 0.034604 0.762036
v 0.036969 1.739530 0.905007
v 0.368941 1.739530 0.762036
vn -0.0000 -0.0000 -1.0000
vn -0.2530 -0.0000 -0.9675
vn -0.0000 1.0000 -0.0000
vn -0.0000 -1.0000 -0.0000
vn 1.0000 -0.0000 -0.0000
vn -0.0000 -0.0000 1.0000
vn -1.0000 -0.0000 -0.0000
s 0
f 100//78 98//78 105//78
f 98//79 97//79 99//79
f 99//80 96//80 100//80
f 97//81 98//81 101//81
f 100//82 96//82 101//82
f 101//83 96//83 102//83
f 99//84 97//84 102//84
f 97//81 101//81 102//81
f 98//78 100//78 103//78
f 101//81 98//81 103//81
f 100//82 101//82 103//82
f 96//80 99//80 104//80
f 102//83 96//83 104//83
f 99//84 102//84 104//84
f 98//79 99//79 105//79
f 99//80 100//80 105//80
o convex_18
v -0.131551 1.739363 -0.902542
v -0.330650 0.034604 -0.902542
v -0.330650 0.034604 -0.785113
v -0.330650 1.739530 -0.902542
v -0.315348 1.739530 -0.785113
v -0.131551 0.034604 -0.836188
v -0.131551 0.034604 -0.902542
v -0.131551 1.739363 -0.836188
v -0.330650 1.739530 -0.785113
v -0.315348 0.034604 -0.785113
vn 0.2677 -0.0000 0.9635
vn -1.0000 -0.0000 -0.0000
vn -0.0000 -0.0000 -1.0000
vn 0.0008 1.0000 -0.0001
vn -0.0000 -1.0000 -0.0000
vn 1.0000 -0.0000 -0.0000
vn 0.0009 1.0000 -0.0000
vn -0.0000 1.0000 -0.0000
vn -0.0000 -0.0000 1.0000
s 0
f 111//85 110//85 115//85
f 107//86 108//86 109//86
f 106//87 107//87 109//87
f 106//88 109//88 110//88
f 108//89 107//89 111//89
f 106//90 111//90 112//90
f 107//87 106//87 112//87
f 111//89 107//89 112//89
f 106//91 110//91 113//91
f 110//85 111//85 113//85
f 111//90 106//90 113//90
f 109//86 108//86 114//86
f 110//92 109//92 114//92
f 108//93 110//93 114//93
f 110//93 108//93 115//93
f 108//89 111//89 115//89
o convex_2
v -0.085563 1.739530 -0.841286
v -0.131532 0.034604 -0.902547
v 0.036969 0.034604 -0.902547
v -0.131532 0.034604 -0.841286
v -0.131532 1.739530 -0.902547
v 0.036969 1.739530 -0.846389
v 0.036969 0.034604 -0.846389
v 0.036969 1.739530 -0.902547
v -0.131532 1.739530 -0.841286
vn -1.0000 -0.0000 -0.0000
vn -0.0000 -1.0000 -0.0000
vn -0.0000 -0.0000 -1.0000
vn -0.0000 1.0000 -0.0000
vn 0.0303 -0.0008 0.9995
vn 1.0000 -0.0000 -0.0000
vn 0.0416 -0.0000 0.9991
vn -0.0000 -0.0000 1.0000
s 0
f 120//94 119//94 124//94
f 117//95 118//95 119//95
f 118//96 117//96 120//96
f 117//94 119//94 120//94
f 120//97 116//97 121//97
f 119//95 118//95 122//95
f 116//98 119//98 122//98
f 118//99 121//99 122//99
f 121//100 116//100 122//100
f 118//96 120//96 123//96
f 121//99 118//99 123//99
f 120//97 121//97 123//97
f 119//101 116//101 124//101
f 116//97 120//97 124//97
o convex_3
v 0.838640 0.034604 0.113578
v 0.905007 1.739530 0.297381
v 0.905007 1.739530 0.108455
v 0.797778 1.739530 0.297381
v 0.905007 0.034604 0.297381
v 0.797778 0.034604 0.297381
v 0.905007 0.034604 0.108455
v 0.838640 1.739530 0.113578
v 0.797778 1.739530 0.282050
v 0.843741 1.739530 0.108455
v 0.797778 0.034604 0.282050
vn -1.0000 -0.0000 -0.0000
vn -0.0000 1.0000 -0.0000
vn 1.0000 -0.0000 -0.0000
vn -0.0000 -0.0000 1.0000
vn -0.0000 -1.0000 -0.0000
vn -0.9718 -0.0000 -0.2357
vn -0.0770 -0.0028 -0.9970
vn -0.0000 -0.0000 -1.0000
vn -0.7086 -0.0000 -0.7056
s 0
f 130//102 133//102 135//102
f 126//103 127//103 128//103
f 127//104 126//104 129//104
f 126//105 128//105 129//105
f 125//106 129//106 130//106
f 129//105 128//105 130//105
f 129//106 125//106 131//106
f 127//104 129//104 131//104
f 128//103 127//103 132//103
f 128//103 132//103 133//103
f 130//102 128//102 133//102
f 132//107 125//107 133//107
f 131//108 125//108 134//108
f 127//109 131//109 134//109
f 125//110 132//110 134//110
f 132//103 127//103 134//103
f 125//106 130//106 135//106
f 133//107 125//107 135//107
o convex_4
v -0.565558 1.739530 -0.626858
v -0.902497 0.034604 -0.902553
v -0.330670 0.034604 -0.902553
v -0.902497 0.034604 -0.621717
v -0.902497 1.739530 -0.902553
v -0.330670 1.739530 -0.902553
v -0.330670 0.034604 -0.780004
v -0.902497 1.739530 -0.621717
v -0.575802 0.034604 -0.621717
v -0.330670 1.739530 -0.780004
v -0.575802 1.739530 -0.621717
v -0.565558 0.034604 -0.626858
vn 0.4485 -0.0000 0.8938
vn -0.0000 -1.0000 -0.0000
vn -0.0000 -0.0000 -1.0000
vn -1.0000 -0.0000 -0.0000
vn -0.0000 1.0000 -0.0000
vn 1.0000 -0.0000 -0.0000
vn -0.0000 -0.0000 1.0000
vn 0.5462 -0.0000 0.8377
vn -0.0000 1.0000 0.0001
s 0
f 136//111 144//111 147//111
f 137//112 138//112 139//112
f 138//113 137//113 140//113
f 137//114 139//114 140//114
f 140//115 136//115 141//115
f 138//113 140//113 141//113
f 139//112 138//112 142//112
f 138//116 141//116 142//116
f 136//115 140//115 143//115
f 140//114 139//114 143//114
f 139//112 142//112 144//112
f 143//117 139//117 144//117
f 141//115 136//115 145//115
f 136//118 142//118 145//118
f 142//116 141//116 145//116
f 136//119 143//119 146//119
f 144//111 136//111 146//111
f 143//117 144//117 146//117
f 142//118 136//118 147//118
f 144//112 142//112 147//112
o convex_5
v -0.580903 0.034604 -0.616595
v -0.902553 1.266070 -0.437932
v -0.902553 1.266070 -0.310245
v -0.580903 1.739530 -0.616595
v -0.902522 0.034771 -0.621717
v -0.790204 0.034604 -0.310245
v -0.902553 1.739530 -0.621717
v -0.790204 1.739530 -0.310245
v -0.902522 0.034771 -0.310245
v -0.902553 1.739530 -0.310245
v -0.580903 1.739530 -0.621687
v -0.580903 0.034604 -0.621687
v -0.785103 0.034604 -0.315367
v -0.785103 1.739530 -0.315367
vn 0.8277 -0.0000 0.5611
vn -1.0000 -0.0000 -0.0000
vn -0.0000 -0.0000 1.0000
vn -0.0000 1.0000 -0.0000
vn -0.0015 -1.0000 -0.0000
vn 1.0000 -0.0000 -0.0000
vn 0.0001 -0.0000 -1.0000
vn -0.0000 -1.0000 -0.0000
vn -0.0005 -1.0000 -0.0003
vn 0.7086 -0.0000 0.7057
s 0
f 160//120 151//120 161//120
f 150//121 149//121 152//121
f 149//121 150//121 154//121
f 152//121 149//121 154//121
f 150//122 153//122 155//122
f 151//123 154//123 155//123
f 150//121 152//121 156//121
f 153//122 150//122 156//122
f 152//124 153//124 156//124
f 154//121 150//121 157//121
f 150//122 155//122 157//122
f 155//123 154//123 157//123
f 151//125 148//125 158//125
f 154//123 151//123 158//123
f 152//126 154//126 158//126
f 148//127 153//127 159//127
f 153//128 152//128 159//128
f 158//125 148//125 159//125
f 152//126 158//126 159//126
f 148//120 151//120 160//120
f 153//127 148//127 160//127
f 155//129 153//129 160//129
f 155//129 160//129 161//129
f 151//123 155//123 161//123
o convex_6
v -0.902542 0.034604 -0.310245
v -0.846386 1.739530 0.006333
v -0.790219 1.739530 -0.300019
v -0.902553 1.739530 -0.310245
v -0.902542 0.034604 0.006333
v -0.790219 0.034604 -0.310245
v -0.846386 0.034604 0.006333
v -0.902553 1.739530 0.006333
v -0.790219 1.739530 -0.310245
v -0.790219 0.034604 -0.300019
vn -0.0000 -1.0000 -0.0000
vn -0.0000 1.0000 -0.0000
vn -1.0000 -0.0000 -0.0000
vn -0.0000 -0.0000 -1.0000
vn 0.9836 -0.0000 0.1803
vn -0.0000 -0.0000 1.0000
vn 1.0000 -0.0000 -0.0000
s 0
f 168//130 167//130 171//130
f 163//131 164//131 165//131
f 165//132 162//132 166//132
f 162//133 165//133 167//133
f 166//130 162//130 167//130
f 164//134 163//134 168//134
f 163//135 166//135 168//135
f 166//130 167//130 168//130
f 163//131 165//131 169//131
f 165//132 166//132 169//132
f 166//135 163//135 169//135
f 165//131 164//131 170//131
f 164//136 167//136 170//136
f 167//133 165//133 170//133
f 167//136 164//136 171//136
f 164//134 168//134 171//134
o convex_7
v -0.902553 0.034771 0.006333
v -0.769794 1.739530 0.358654
v -0.769794 1.739530 0.353515
v -0.769794 0.034604 0.358654
v -0.902540 1.739530 0.358654
v -0.846375 1.739530 0.006333
v -0.902553 0.034771 0.358654
v -0.846375 0.034604 0.006333
v -0.902540 1.739530 0.006333
v -0.769794 0.034604 0.353515
vn -0.0000 -1.0000 -0.0000
vn 1.0000 -0.0000 -0.0000
vn -0.0000 1.0000 -0.0000
vn -0.0000 -0.0000 1.0000
vn -1.0000 -0.0000 -0.0000
vn 0.9765 -0.0000 -0.2154
vn -0.0000 -0.0000 -1.0000
vn -0.0030 -1.0000 -0.0000
vn -0.0013 -1.0000 0.0003
s 0
f 175//137 179//137 181//137
f 174//138 173//138 175//138
f 173//139 174//139 176//139
f 175//140 173//140 176//140
f 176//139 174//139 177//139
f 176//141 172//141 178//141
f 175//140 176//140 178//140
f 177//142 174//142 179//142
f 172//143 177//143 179//143
f 178//144 172//144 179//144
f 175//145 178//145 179//145
f 172//141 176//141 180//141
f 177//143 172//143 180//143
f 176//139 177//139 180//139
f 174//138 175//138 181//138
f 179//142 174//142 181//142
o convex_8
v -0.897431 0.034604 0.358707
v -0.591111 1.739530 0.904953
v -0.591111 1.739530 0.608863
v -0.902553 1.739530 0.904900
v -0.591081 0.034604 0.904953
v -0.902553 1.739530 0.358707
v -0.902523 0.034771 0.904900
v -0.764683 0.034604 0.363841
v -0.591081 0.034604 0.608863
v -0.769775 1.739530 0.358707
v -0.902523 0.034771 0.358707
v -0.596203 1.739530 0.598703
v -0.769775 0.034604 0.358707
v -0.596203 0.034604 0.598703
vn 0.8126 -0.0000 -0.5829
vn -0.0000 1.0000 -0.0000
vn 1.0000 -0.0000 -0.0000
vn -0.0002 -0.0000 1.0000
vn -1.0000 -0.0000 -0.0000
vn -0.0005 -1.0000 0.0003
vn -0.0000 -1.0000 -0.0000
vn -0.0000 -0.0000 -1.0000
vn -0.0327 -0.9995 -0.0000
vn 0.8940 -0.0000 -0.4481
vn 0.8103 0.0007 -0.5860
vn 0.7100 -0.0000 -0.7042
vn 0.8929 -0.0000 -0.4502
s 0
f 189//146 193//146 195//146
f 183//147 184//147 185//147
f 184//148 183//148 186//148
f 183//149 185//149 186//149
f 185//147 184//147 187//147
f 185//150 187//150 188//150
f 182//151 186//151 188//151
f 186//149 185//149 188//149
f 186//152 182//152 189//152
f 184//148 186//148 190//148
f 186//152 189//152 190//152
f 182//153 187//153 191//153
f 187//147 184//147 191//147
f 187//153 182//153 192//153
f 188//150 187//150 192//150
f 182//154 188//154 192//154
f 184//155 190//155 193//155
f 191//147 184//147 193//147
f 189//156 191//156 193//156
f 189//152 182//152 194//152
f 182//153 191//153 194//153
f 191//157 189//157 194//157
f 190//152 189//152 195//152
f 193//158 190//158 195//158
o convex_9
v -0.310245 1.739530 0.787564
v -0.591081 1.109694 0.624175
v -0.591053 0.034604 0.613959
v -0.591053 0.034604 0.792672
v -0.310245 0.034604 0.787564
v -0.591081 1.739530 0.792672
v -0.580855 1.739530 0.613959
v -0.310245 1.739530 0.792672
v -0.580855 0.034604 0.613959
v -0.310245 0.034604 0.792672
v -0.591081 1.739530 0.613959
vn -0.0000 1.0000 -0.0000
vn -1.0000 -0.0000 -0.0000
vn -0.0000 -1.0000 -0.0000
vn -1.0000 -0.0000 0.0001
vn 0.5400 -0.0000 -0.8417
vn 1.0000 -0.0000 -0.0000
vn -0.0000 -0.0000 1.0000
vn -0.0000 -0.0000 -1.0000
vn -1.0000 -0.0000 -0.0010
s 0
f 201//159 202//159 206//159
f 197//160 198//160 199//160
f 199//161 198//161 200//161
f 197//162 199//162 201//162
f 196//163 200//163 202//163
f 201//159 196//159 202//159
f 200//164 196//164 203//164
f 196//159 201//159 203//159
f 201//165 199//165 203//165
f 200//161 198//161 204//161
f 198//166 202//166 204//166
f 202//163 200//163 204//163
f 199//161 200//161 205//161
f 200//164 203//164 205//164
f 203//165 199//165 205//165
f 198//167 197//167 206//167
f 197//160 201//160 206//160
f 202//166 198//166 206//166
